<svg width="32" height="32" viewBox="0 0 32 32" fill="none" xmlns="http://www.w3.org/2000/svg">
<rect width="32" height="32" fill="#F6F6F6"/>
<path d="M12.574 8.45455H15.6493V17.9006C15.6493 18.9612 15.3959 19.8892 14.8893 20.6847C14.3874 21.4801 13.6843 22.1004 12.7799 22.5455C11.8756 22.9858 10.8221 23.206 9.61943 23.206C8.41204 23.206 7.35617 22.9858 6.45181 22.5455C5.54746 22.1004 4.84433 21.4801 4.34244 20.6847C3.84054 19.8892 3.5896 18.9612 3.5896 17.9006V8.45455H6.66488V17.6378C6.66488 18.1918 6.78562 18.6842 7.0271 19.1151C7.27331 19.5459 7.61895 19.8845 8.06403 20.1307C8.5091 20.3769 9.02757 20.5 9.61943 20.5C10.216 20.5 10.7345 20.3769 11.1748 20.1307C11.6199 19.8845 11.9632 19.5459 12.2047 19.1151C12.4509 18.6842 12.574 18.1918 12.574 17.6378V8.45455ZM16.0255 10.9901V8.45455H27.9715V10.9901H23.5184V23H20.4786V10.9901H16.0255Z" fill="#121011"/>
</svg>
