<svg width="32" height="32" viewBox="0 0 32 32" fill="none" xmlns="http://www.w3.org/2000/svg">
<g clip-path="url(#clip0_107_0)">
<rect width="32" height="32" rx="2" fill="black"/>
<path d="M14.2383 8.22656C14.2227 8.58594 14.2031 9.05469 14.1797 9.63281C14.1641 10.2031 14.1445 10.8438 14.1211 11.5547C14.1055 12.2578 14.0859 13.0078 14.0625 13.8047C14.0469 14.6016 14.0312 15.4023 14.0156 16.207C14 17.0117 13.9883 17.7969 13.9805 18.5625C13.9727 19.3281 13.9688 20.0352 13.9688 20.6836C13.9688 21.4102 13.9727 22.0312 13.9805 22.5469C13.9961 23.0625 14.0156 23.418 14.0391 23.6133C14.0547 23.6758 14.0547 23.7188 14.0391 23.7422C14.0312 23.7656 14.0156 23.7812 13.9922 23.7891C13.9688 23.7969 13.9414 23.8047 13.9102 23.8125C13.8789 23.8125 13.8516 23.8203 13.8281 23.8359C13.8047 23.8516 13.793 23.875 13.793 23.9062C13.793 23.9375 13.793 23.9688 13.793 24C13.793 24.0312 13.7891 24.0586 13.7812 24.082C13.7734 24.1055 13.75 24.1172 13.7109 24.1172C13.4609 24.1172 13.2734 24.0938 13.1484 24.0469C13.0312 24 12.9219 23.9219 12.8203 23.8125C12.7031 23.6875 12.5977 23.5469 12.5039 23.3906C12.418 23.2344 12.3633 23.0547 12.3398 22.8516C12.332 22.7812 12.3203 22.6875 12.3047 22.5703C12.2891 22.4531 12.2695 22.3242 12.2461 22.1836C12.2305 22.0352 12.2148 21.875 12.1992 21.7031C12.1914 21.5312 12.1914 21.3516 12.1992 21.1641C12.1992 20.9453 12.1953 20.7305 12.1875 20.5195C12.1797 20.3086 12.168 20.1016 12.1523 19.8984C12.0586 20.1406 11.9492 20.418 11.8242 20.7305C11.6992 21.0352 11.5469 21.3477 11.3672 21.668C11.1875 21.9883 10.9805 22.3008 10.7461 22.6055C10.5195 22.9102 10.2539 23.1836 9.94922 23.4258C9.65234 23.6602 9.31641 23.8516 8.94141 24C8.56641 24.1406 8.14844 24.2109 7.6875 24.2109C7.32031 24.2109 6.93359 24.1641 6.52734 24.0703C5.98828 23.9297 5.52344 23.7227 5.13281 23.4492C4.74219 23.1758 4.41016 22.8438 4.13672 22.4531C3.86328 22.0547 3.63672 21.6055 3.45703 21.1055C3.28516 20.5977 3.14062 20.043 3.02344 19.4414C2.98438 19.2227 2.95312 18.9844 2.92969 18.7266C2.91406 18.4609 2.90625 18.1641 2.90625 17.8359C2.90625 17.1719 2.9375 16.4336 3 15.6211C3.0625 14.8086 3.13281 13.9844 3.21094 13.1484C3.28906 12.3125 3.36328 11.4961 3.43359 10.6992C3.50391 9.89453 3.54688 9.17578 3.5625 8.54297C3.5625 8.33984 3.57812 8.18359 3.60938 8.07422C3.64844 7.95703 3.75 7.86719 3.91406 7.80469C3.94531 7.79687 3.97656 7.80078 4.00781 7.81641C4.03906 7.82422 4.07031 7.83203 4.10156 7.83984C4.13281 7.83984 4.16797 7.83203 4.20703 7.81641C4.24609 7.80078 4.28516 7.76953 4.32422 7.72266C4.37109 7.65234 4.41406 7.61719 4.45312 7.61719C4.49219 7.60937 4.52344 7.62109 4.54688 7.65234C4.57812 7.68359 4.60547 7.71875 4.62891 7.75781C4.66016 7.79687 4.6875 7.82031 4.71094 7.82812C4.74219 7.84375 4.78906 7.88281 4.85156 7.94531C4.92188 8.00781 4.98828 8.08203 5.05078 8.16797C5.11328 8.24609 5.16797 8.32812 5.21484 8.41406C5.26172 8.49219 5.28516 8.55859 5.28516 8.61328C5.28516 8.67578 5.30859 8.78906 5.35547 8.95312C5.40234 9.11719 5.43359 9.34766 5.44922 9.64453C5.47266 10.0273 5.47266 10.4922 5.44922 11.0391C5.43359 11.5781 5.40625 12.1602 5.36719 12.7852C5.32812 13.4023 5.28516 14.0352 5.23828 14.6836C5.19141 15.332 5.14844 15.957 5.10938 16.5586C5.07031 17.1602 5.03906 17.7148 5.01562 18.2227C4.99219 18.7227 4.99219 19.1367 5.01562 19.4648C5.07031 20.2148 5.13281 20.8047 5.20312 21.2344C5.28125 21.6562 5.36328 21.8906 5.44922 21.9375C5.53516 21.9844 5.63672 22.0156 5.75391 22.0312C5.87891 22.0469 6.04297 22.0547 6.24609 22.0547C7.38672 22 8.33594 21.7891 9.09375 21.4219C9.85156 21.0469 10.4609 20.4961 10.9219 19.7695C11.3906 19.043 11.7344 18.125 11.9531 17.0156C12.1797 15.8984 12.3242 14.5703 12.3867 13.0312C12.4102 12.3906 12.4375 11.8203 12.4688 11.3203C12.5 10.8203 12.5312 10.3672 12.5625 9.96094C12.6016 9.55469 12.6406 9.18359 12.6797 8.84766C12.7266 8.51172 12.7734 8.1875 12.8203 7.875C12.8359 7.82812 12.875 7.78906 12.9375 7.75781C13 7.72656 13.0586 7.69922 13.1133 7.67578C13.1523 7.63672 13.1719 7.60156 13.1719 7.57031C13.1797 7.53125 13.2148 7.50391 13.2773 7.48828C13.3086 7.48047 13.3516 7.47266 13.4062 7.46484C13.4609 7.44922 13.5156 7.44922 13.5703 7.46484C13.6328 7.47266 13.6875 7.49219 13.7344 7.52344C13.7891 7.55469 13.8281 7.60547 13.8516 7.67578C13.875 7.73047 13.9219 7.76953 13.9922 7.79297C14.0625 7.81641 14.1211 7.85156 14.168 7.89844C14.1914 7.9375 14.2109 7.98047 14.2266 8.02734C14.25 8.07422 14.2539 8.14062 14.2383 8.22656ZM30.9961 8.30859C30.957 8.38672 30.918 8.44922 30.8789 8.49609C30.8477 8.54297 30.8203 8.57812 30.7969 8.60156C30.7656 8.63281 30.7383 8.65234 30.7148 8.66016C30.6523 8.67578 30.5273 8.69922 30.3398 8.73047C30.1523 8.75391 29.8984 8.77344 29.5781 8.78906C29.3438 8.80469 29.0234 8.83984 28.6172 8.89453C28.2109 8.94141 27.7461 9.00391 27.2227 9.08203C26.707 9.15234 26.1445 9.22656 25.5352 9.30469C24.9258 9.38281 24.293 9.44922 23.6367 9.50391C23.5742 10.5977 23.5273 11.7148 23.4961 12.8555C23.4727 13.9961 23.4531 15.1445 23.4375 16.3008C23.4219 17.4492 23.4062 18.5977 23.3906 19.7461C23.3828 20.8867 23.3672 22.0078 23.3438 23.1094C23.3438 23.1484 23.3281 23.1875 23.2969 23.2266C23.2656 23.2578 23.2422 23.2852 23.2266 23.3086C23.1875 23.4648 23.1172 23.6016 23.0156 23.7188C22.9141 23.8281 22.8086 23.8828 22.6992 23.8828C22.3711 23.8828 22.1172 23.832 21.9375 23.7305C21.7656 23.6289 21.6172 23.5195 21.4922 23.4023C21.4375 23.332 21.3828 23.2305 21.3281 23.0977C21.2812 22.957 21.2383 22.8047 21.1992 22.6406C21.1602 22.4688 21.125 22.2891 21.0938 22.1016C21.0625 21.9062 21.043 21.7227 21.0352 21.5508C21.0195 21.3789 21.0078 21.2109 21 21.0469C20.9922 20.8828 20.9883 20.7148 20.9883 20.543C20.9883 20.168 21 19.8008 21.0234 19.4414C21.0469 19.082 21.0664 18.7461 21.082 18.4336C21.0898 18.2383 21.1016 17.9609 21.1172 17.6016C21.1406 17.2422 21.168 16.832 21.1992 16.3711C21.2305 15.9102 21.2656 15.418 21.3047 14.8945C21.3438 14.3633 21.3906 13.832 21.4453 13.3008C21.5078 12.7695 21.5742 12.2539 21.6445 11.7539C21.7148 11.2461 21.793 10.7852 21.8789 10.3711C21.918 10.2461 21.9531 10.125 21.9844 10.0078C22.0156 9.88281 22.043 9.75391 22.0664 9.62109C21.3477 9.66797 20.6445 9.69141 19.957 9.69141C19.0742 9.69141 18.2344 9.64062 17.4375 9.53906C16.6406 9.42969 15.9609 9.24219 15.3984 8.97656C15.3281 8.9375 15.2891 8.86719 15.2812 8.76562C15.2656 8.66406 15.2344 8.55859 15.1875 8.44922C15.125 8.36328 15.1016 8.26953 15.1172 8.16797C15.1328 8.05859 15.1406 7.96875 15.1406 7.89844C15.1328 7.82812 15.1562 7.78125 15.2109 7.75781C15.2578 7.73438 15.3594 7.72656 15.5156 7.73438C15.6641 7.73438 15.8711 7.74219 16.1367 7.75781C16.4102 7.77344 16.7656 7.78125 17.2031 7.78125C17.5312 7.78125 17.9062 7.77344 18.3281 7.75781C18.75 7.74219 19.2305 7.71484 19.7695 7.67578C20.0352 7.65234 20.418 7.61719 20.918 7.57031C21.4258 7.51562 21.9961 7.46484 22.6289 7.41797C23.2695 7.36328 23.9492 7.31641 24.668 7.27734C25.3867 7.23828 26.0977 7.21875 26.8008 7.21875C27.0664 7.21875 27.3633 7.23437 27.6914 7.26562C28.0195 7.28906 28.3438 7.32422 28.6641 7.37109C28.9922 7.41797 29.293 7.47266 29.5664 7.53516C29.8477 7.59766 30.0781 7.66016 30.2578 7.72266C30.375 7.76953 30.4453 7.8125 30.4688 7.85156C30.4922 7.88281 30.5 7.91016 30.4922 7.93359C30.4922 7.95703 30.4883 7.97656 30.4805 7.99219C30.4727 8.00781 30.4922 8.02344 30.5391 8.03906C30.5859 8.05469 30.6367 8.06641 30.6914 8.07422C30.7461 8.08203 30.7969 8.09766 30.8438 8.12109C30.8906 8.13672 30.9297 8.16016 30.9609 8.19141C30.9922 8.22266 31.0039 8.26172 30.9961 8.30859Z" fill="#FFFEFE"/>
</g>
<defs>
<clipPath id="clip0_107_0">
<rect width="32" height="32" rx="2" fill="white"/>
</clipPath>
</defs>
</svg>
